<svg width="134.910107421875px" height="122px" xmlns="http://www.w3.org/2000/svg" viewBox="182.5449462890625 14 134.910107421875 122" style="background: rgba(0, 0, 0, 0);" preserveAspectRatio="xMidYMid"><defs><filter id="editing-liquid" width="150%" height="160%" x="-25%" y="-25%"><feFlood flood-color="rgba(62.745098039215684%,83.52941176470583%,100%,0)" result="flood-1"></feFlood><feFlood flood-color="rgba(100%,100%,100%,0.34)" result="flood-2"></feFlood><feFlood flood-color="#0067ff" result="flood-3"></feFlood><feTurbulence baseFrequency="0.01" type="fractalNoise" numOctaves="1" seed="12" result="bs-1"></feTurbulence><feGaussianBlur stdDeviation="10" in="SourceAlpha" result="bs-2"></feGaussianBlur><feDisplacementMap scale="420" in="bs-2" in2="bs-1" result="bs-3"></feDisplacementMap><feComposite operator="in" in="flood-1" in2="bs-3" result="bs-4"></feComposite><feTurbulence baseFrequency="0.02" type="fractalNoise" numOctaves="2" seed="13" result="ms-1"></feTurbulence><feGaussianBlur in="SourceAlpha" stdDeviation="0.1" result="ms-2"></feGaussianBlur><feDisplacementMap in="ms-2" in2="ms-1" scale="35" result="ms-3"></feDisplacementMap><feComposite in="flood-3" in2="ms-3" operator="in" result="ms-4"></feComposite><feTurbulence baseFrequency="0.05" type="fractalNoise" numOctaves="1" seed="14" result="ts-1"></feTurbulence><feGaussianBlur stdDeviation="3.5" in="SourceAlpha" result="ts-2"></feGaussianBlur><feDisplacementMap scale="220" in="ts-2" in2="ts-1" result="ts-3"></feDisplacementMap><feComposite operator="in" in="flood-2" in2="ts-3" result="ts-4"></feComposite><feMerge result="le-1"><feMergeNode in="bs-4"></feMergeNode><feMergeNode in="ms-4"></feMergeNode><feMergeNode in="ts-4"></feMergeNode></feMerge><feColorMatrix type="matrix" in="le-1" result="le-2" values="0 0 0 0 0, 0 0 0 0 0, 0 0 0 0 0, 0 0 0 1 0"></feColorMatrix><feGaussianBlur stdDeviation="2" in="le-2" result="le-3"></feGaussianBlur><feSpecularLighting surfaceScale="5" specularConstant=".75" specularExponent="30" lighting-color="#white" in="le-3" result="le-4"><fePointLight x="-50" y="-100" z="400"></fePointLight></feSpecularLighting><feComposite operator="in" in="le-4" in2="le-2" result="le-5"></feComposite><feComposite operator="arithmetic" k1="0" k2="1" k3="1" k4="0" in="le-1" in2="le-5" result="le-6"></feComposite></filter></defs><g filter="url(#editing-liquid)"><g transform="translate(208.6317912042141, 97.39999961853027)"><path d="M14.34 0L0.38 0L8.51-42.24L22.59-42.24L14.34 0ZM48.96-29.57L48.96-29.57L48.96-29.57Q49.92-31.49 49.92-33.28L49.92-33.28L49.92-33.28Q49.92-35.07 49.73-36.06L49.73-36.06L49.73-36.06Q49.54-37.06 49.09-37.82L49.09-37.82L49.09-37.82Q48.13-39.49 46.21-39.49L46.21-39.49L46.21-39.49Q43.84-39.49 41.92-37.76L41.92-37.76L41.92-37.76Q39.87-35.97 39.87-33.15L39.87-33.15L39.87-33.15Q39.87-31.36 41.12-29.98L41.12-29.98L41.12-29.98Q42.37-28.61 44.29-27.33L44.29-27.33L44.29-27.33Q46.21-26.05 48.38-24.77L48.38-24.77L48.38-24.77Q50.56-23.49 52.48-21.95L52.48-21.95L52.48-21.95Q56.90-18.43 56.90-13.70L56.90-13.70L56.90-13.70Q56.90-10.50 55.20-7.78L55.20-7.78L55.20-7.78Q53.50-5.06 50.69-3.07L50.69-3.07L50.69-3.07Q44.54 1.28 36.42 1.28L36.42 1.28L36.42 1.28Q29.82 1.28 26.43-0.86L26.43-0.86L26.43-0.86Q23.04-3.01 23.04-6.27L23.04-6.27L23.04-6.27Q23.04-12.10 27.58-13.57L27.58-13.57L27.58-13.57Q28.86-14.02 30.82-14.02L30.82-14.02L30.82-14.02Q32.77-14.02 35.01-13.18L35.01-13.18L35.01-13.18Q33.98-10.56 33.98-8.19L33.98-8.19L33.98-8.19Q33.98-3.07 37.63-3.07L37.63-3.07L37.63-3.07Q40-3.07 41.95-4.80L41.95-4.80L41.95-4.80Q43.90-6.53 43.90-8.48L43.90-8.48L43.90-8.48Q43.90-10.43 42.66-11.84L42.66-11.84L42.66-11.84Q41.41-13.25 39.55-14.37L39.55-14.37L39.55-14.37Q37.70-15.49 35.55-16.58L35.55-16.58L35.55-16.58Q33.41-17.66 31.55-19.20L31.55-19.20L31.55-19.20Q27.20-22.72 27.20-28.35L27.20-28.35L27.20-28.35Q27.20-32 28.99-34.85L28.99-34.85L28.99-34.85Q30.78-37.70 33.66-39.62L33.66-39.62L33.66-39.62Q39.42-43.52 46.50-43.52L46.50-43.52L46.50-43.52Q53.57-43.52 56.99-41.41L56.99-41.41L56.99-41.41Q60.42-39.30 60.42-35.71L60.42-35.71L60.42-35.71Q60.42-32.58 57.98-30.59L57.98-30.59L57.98-30.59Q55.87-28.93 53.31-28.93L53.31-28.93L53.31-28.93Q50.75-28.93 48.96-29.57ZM75.01 0L61.06 0L69.18-42.24L83.26-42.24L75.01 0Z" fill="#444"></path></g></g></svg>